<svg width="9" height="10" viewBox="0 0 9 10" fill="none" xmlns="http://www.w3.org/2000/svg">
<path d="M7.26563 1.42447H6.07422V1.17188C6.07422 0.525703 5.54852 0 4.90234 0H3.53516C2.88898 0 2.36328 0.525703 2.36328 1.17188V1.42447H1.17187C0.5257 1.42447 0 1.95018 0 2.59635V3.57422H0.78125V8.82812C0.78125 9.4743 1.30695 10 1.95313 10H6.48437C7.13055 10 7.65625 9.4743 7.65625 8.82812V3.57422H8.4375V2.59635C8.4375 1.95018 7.9118 1.42447 7.26563 1.42447ZM3.14453 1.17188C3.14453 0.956484 3.31977 0.78125 3.53516 0.78125H4.90234C5.11773 0.78125 5.29297 0.956484 5.29297 1.17188V1.42447H3.14453V1.17188ZM6.875 8.82812C6.875 9.04352 6.69977 9.21875 6.48437 9.21875H1.95313C1.73773 9.21875 1.5625 9.04352 1.5625 8.82812V3.57422H6.875V8.82812ZM7.65625 2.79297H0.78125V2.59635C0.78125 2.38096 0.95648 2.20572 1.17187 2.20572H7.26563C7.48102 2.20572 7.65625 2.38096 7.65625 2.59635V2.79297Z" fill="#474B4F"/>
</svg>
