<svg width="16" height="16" viewBox="0 0 16 16" fill="none" xmlns="http://www.w3.org/2000/svg">
<g clip-path="url(#clip0)">
<path d="M1.28928 6.68731C1.80366 6.68731 2.2683 6.37846 2.46726 5.90397C3.28879 3.94665 5.22053 2.56723 7.47254 2.56723C8.71374 2.56723 9.85167 2.99266 10.764 3.69826L10.0489 3.80896C9.80464 3.84682 9.61464 4.04061 9.58154 4.28552C9.54837 4.5303 9.68032 4.76779 9.90556 4.86899L13.8379 6.63808C14.0102 6.71548 14.2099 6.70061 14.3688 6.59851C14.5274 6.49625 14.6238 6.32076 14.6248 6.13194L14.6452 1.7991C14.6466 1.55261 14.4859 1.33463 14.2503 1.26278C14.0144 1.19093 13.7595 1.28212 13.623 1.4873L13.081 2.30186C11.6359 0.879355 9.65582 0 7.47254 0C4.1621 0 1.31587 2.02162 0.101959 4.89494C-0.0666348 5.2932 -0.0241415 5.74924 0.214563 6.10954C0.453267 6.46998 0.856757 6.68731 1.28928 6.68731Z" fill="#007CBA"/>
<path d="M14.7305 9.89049C14.4918 9.53002 14.0883 9.31273 13.6558 9.31273C13.1414 9.31273 12.6768 9.62158 12.4778 10.0961C11.6563 12.0534 9.72452 13.4328 7.47254 13.4328C6.2313 13.4328 5.09338 13.0074 4.18105 12.3018L4.89615 12.1911C5.14037 12.1533 5.33037 11.9595 5.36354 11.7145C5.39667 11.4698 5.26476 11.2322 5.03952 11.131L1.10722 9.36195C0.934814 9.28458 0.735155 9.29939 0.576249 9.40152C0.417671 9.50378 0.321289 9.67927 0.320271 9.86806L0.299845 14.2009C0.298466 14.4474 0.459113 14.6654 0.694698 14.7372C0.930644 14.8091 1.18557 14.7178 1.32205 14.5126L1.86405 13.6981C3.30909 15.1206 5.28923 16 7.47251 16C10.783 16 13.6291 13.9784 14.843 11.1051C15.0117 10.7068 14.9692 10.2508 14.7305 9.89049Z" fill="#007CBA"/>
</g>
<defs>
<clipPath id="clip0">
<rect width="16" height="16" fill="white"/>
</clipPath>
</defs>
</svg>
