<svg width="144" height="144" viewBox="0 0 144 144" fill="none" xmlns="http://www.w3.org/2000/svg">
<circle cx="72" cy="72" r="72" fill="#2339A9"/>
<path d="M72.5 15L74.0867 19.9137H79.2213L75.0673 22.9505L76.654 27.8641L72.5 24.8273L68.346 27.8641L69.9327 22.9505L65.7787 19.9137H70.9133L72.5 15Z" fill="#FCDF09"/>
<path d="M97.1041 20.7942L98.6908 25.7079H103.825L99.6714 28.7447L101.258 33.6584L97.1041 30.6216L92.9502 33.6584L94.5368 28.7447L90.3829 25.7079H95.5175L97.1041 20.7942Z" fill="#FCDF09"/>
<path d="M48.9428 20.7942L50.5295 25.7079H55.6641L51.5101 28.7447L53.0968 33.6584L48.9428 30.6216L44.7889 33.6584L46.3756 28.7447L42.2216 25.7079H47.3562L48.9428 20.7942Z" fill="#FCDF09"/>
<path d="M30.6206 37.1235L32.2073 42.0371H37.3419L33.1879 45.0739L34.7746 49.9876L30.6206 46.9508L26.4667 49.9876L28.0533 45.0739L23.8994 42.0371H29.0339L30.6206 37.1235Z" fill="#FCDF09"/>
<path d="M114.903 37.1235L116.49 42.0371H121.624L117.47 45.0739L119.057 49.9876L114.903 46.9508L110.749 49.9876L112.336 45.0739L108.182 42.0371H113.316L114.903 37.1235Z" fill="#FCDF09"/>
<path d="M123.279 59.7737L124.865 64.6874H130L125.846 67.7242L127.433 72.6378L123.279 69.601L119.125 72.6378L120.711 67.7242L116.557 64.6874H121.692L123.279 59.7737Z" fill="#FCDF09"/>
<path d="M21.7213 59.7737L23.3079 64.6874H28.4425L24.2885 67.7242L25.8752 72.6378L21.7213 69.601L17.5673 72.6378L19.154 67.7242L15 64.6874H20.1346L21.7213 59.7737Z" fill="#FCDF09"/>
<path d="M24.8622 85.0577L26.4489 89.9713H31.5835L27.4295 93.0081L29.0162 97.9218L24.8622 94.885L20.7082 97.9218L22.2949 93.0081L18.141 89.9713H23.2755L24.8622 85.0577Z" fill="#FCDF09"/>
<path d="M120.661 85.0577L122.248 89.9713H127.383L123.229 93.0081L124.815 97.9218L120.661 94.885L116.507 97.9218L118.094 93.0081L113.94 89.9713H119.075L120.661 85.0577Z" fill="#FCDF09"/>
<path d="M106.527 105.074L108.114 109.988H113.248L109.094 113.025L110.681 117.938L106.527 114.901L102.373 117.938L103.96 113.025L99.8057 109.988H104.94L106.527 105.074Z" fill="#FCDF09"/>
<path d="M38.9965 105.074L40.5832 109.988H45.7178L41.5638 113.025L43.1505 117.938L38.9965 114.901L34.8425 117.938L36.4292 113.025L32.2752 109.988H37.4098L38.9965 105.074Z" fill="#FCDF09"/>
<path d="M60.4597 116.136L62.0464 121.05H67.1809L63.027 124.086L64.6136 129L60.4597 125.963L56.3057 129L57.8924 124.086L53.7384 121.05H58.873L60.4597 116.136Z" fill="#FCDF09"/>
<path d="M85.5873 116.136L87.174 121.05H92.3086L88.1546 124.086L89.7413 129L85.5873 125.963L81.4333 129L83.02 124.086L78.8661 121.05H84.0006L85.5873 116.136Z" fill="#FCDF09"/>
<path d="M72 45C70.6424 45 69.3585 45.2637 68.1484 45.791C66.9384 46.2891 65.8759 46.9922 64.9609 47.9004C64.0755 48.7793 63.3672 49.8193 62.8359 51.0205C62.3342 52.2217 62.0833 53.4961 62.0833 54.8438V59.0625H56.4167C56.033 59.0625 55.6936 59.209 55.3984 59.502C55.1328 59.7656 55 60.0879 55 60.4688V88.5938C55 88.9746 55.1328 89.2969 55.3984 89.5605C55.6936 89.8535 56.033 90 56.4167 90H87.5833C87.967 90 88.2917 89.8535 88.5573 89.5605C88.8524 89.2969 89 88.9746 89 88.5938V60.4688C89 60.0879 88.8524 59.7656 88.5573 59.502C88.2917 59.209 87.967 59.0625 87.5833 59.0625H81.9167V54.8438C81.9167 53.4961 81.651 52.2217 81.1198 51.0205C80.6181 49.8193 79.9097 48.7793 78.9948 47.9004C78.1094 46.9922 77.0616 46.2891 75.8516 45.791C74.6415 45.2637 73.3576 45 72 45ZM73.4167 77.124V81.5625H70.5833V77.124C69.3733 76.8311 68.355 76.1865 67.5286 75.1904C66.7318 74.1943 66.3333 73.0371 66.3333 71.7188C66.3333 70.166 66.8793 68.8477 67.9714 67.7637C69.0929 66.6504 70.4358 66.0938 72 66.0938C73.5642 66.0938 74.8924 66.6504 75.9844 67.7637C77.1059 68.8477 77.6667 70.166 77.6667 71.7188C77.6667 73.0371 77.2535 74.1943 76.4271 75.1904C75.6302 76.1865 74.6267 76.8311 73.4167 77.124ZM79.0833 59.0625H64.9167V54.8438C64.9167 52.9102 65.6102 51.2549 66.9974 49.8779C68.3845 48.501 70.0521 47.8125 72 47.8125C73.9479 47.8125 75.6154 48.501 77.0026 49.8779C78.3898 51.2549 79.0833 52.9102 79.0833 54.8438V59.0625Z" fill="white"/>
</svg>
