<svg width="28" height="28" viewBox="0 0 28 28" fill="none" xmlns="http://www.w3.org/2000/svg">
<path d="M23.4259 9.39529C23.2206 8.95724 23.2875 8.43124 23.6296 8.08916L24.9963 6.72244C25.4169 6.30187 25.4169 5.62 24.9963 5.19944L22.8006 3.00369C22.38 2.58312 21.6981 2.58312 21.2776 3.00369L19.9108 4.37041C19.5688 4.71249 19.0428 4.77937 18.6047 4.5741C18.4131 4.48432 18.2181 4.39972 18.0195 4.32031C17.8304 4.23708 17.6396 4.1617 17.4473 4.09417C16.9742 3.92802 16.625 3.50024 16.625 2.99876V1.07692C16.625 0.482155 16.1428 0 15.5481 0H12.4519C11.8572 0 11.375 0.482155 11.375 1.07692V2.99876C11.375 3.50024 11.0258 3.92802 10.5527 4.09417C10.3604 4.1617 10.1696 4.23708 9.98047 4.32031C9.78195 4.39972 9.58689 4.48432 9.39529 4.5741C8.95724 4.77937 8.43124 4.71249 8.08916 4.37041L6.72244 3.00369C6.30187 2.58312 5.62 2.58312 5.19944 3.00369L3.00369 5.19944C2.58312 5.62 2.58312 6.30187 3.00369 6.72244L4.37041 8.08916C4.71249 8.43124 4.78081 8.95774 4.56713 9.39175C4.47224 9.58449 4.38086 9.78073 4.29297 9.98047C4.21764 10.1688 4.14854 10.3587 4.08566 10.5501C3.92917 11.0265 3.50024 11.375 2.99876 11.375H1.07692C0.482155 11.375 0 11.8572 0 12.4519V15.5481C0 16.1428 0.482155 16.625 1.07692 16.625H2.99876C3.50024 16.625 3.92917 16.9735 4.08566 17.4499C4.14854 17.6413 4.21764 17.8312 4.29297 18.0195C4.38086 18.2193 4.47224 18.4155 4.56713 18.6083C4.78081 19.0423 4.71249 19.5688 4.37041 19.9108L3.00369 21.2776C2.58312 21.6981 2.58312 22.38 3.00369 22.8006L5.19944 24.9963C5.62 25.4169 6.30187 25.4169 6.72244 24.9963L8.08916 23.6296C8.43124 23.2875 8.95774 23.2192 9.39175 23.4329C9.58449 23.5278 9.78073 23.6191 9.98047 23.707C10.1688 23.7824 10.3587 23.8515 10.5501 23.9143C11.0265 24.0708 11.375 24.4998 11.375 25.0012V26.9231C11.375 27.5178 11.8572 28 12.4519 28H15.5481C16.1428 28 16.625 27.5178 16.625 26.9231V25.0012C16.625 24.4998 16.9735 24.0708 17.4499 23.9143C17.6413 23.8515 17.8312 23.7824 18.0195 23.707C18.2193 23.6191 18.4155 23.5278 18.6083 23.4329C19.0423 23.2192 19.5688 23.2875 19.9108 23.6296L21.2776 24.9963C21.6981 25.4169 22.38 25.4169 22.8006 24.9963L24.9963 22.8006C25.4169 22.38 25.4169 21.6981 24.9963 21.2776L23.6296 19.9108C23.2875 19.5688 23.2206 19.0428 23.4259 18.6047C23.5157 18.4131 23.6003 18.2181 23.6797 18.0195C23.7629 17.8304 23.8383 17.6396 23.9058 17.4473C24.072 16.9742 24.4998 16.625 25.0012 16.625H26.9231C27.5178 16.625 28 16.1428 28 15.5481V12.4519C28 11.8572 27.5178 11.375 26.9231 11.375H25.0012C24.4998 11.375 24.072 11.0258 23.9058 10.5527C23.8383 10.3604 23.7629 10.1696 23.6797 9.98047C23.6003 9.78195 23.5157 9.58689 23.4259 9.39529ZM14 18.375C12.7969 18.375 11.7669 17.9466 10.9102 17.0898C10.0534 16.2331 9.625 15.2031 9.625 14C9.625 12.7969 10.0534 11.7669 10.9102 10.9102C11.7669 10.0534 12.7969 9.625 14 9.625C15.2031 9.625 16.2331 10.0534 17.0898 10.9102C17.9466 11.7669 18.375 12.7969 18.375 14C18.375 15.2031 17.9466 16.2331 17.0898 17.0898C16.2331 17.9466 15.2031 18.375 14 18.375Z" fill="#162B40"/>
</svg>
