<svg width="52" height="22" viewBox="0 0 52 22" fill="none" xmlns="http://www.w3.org/2000/svg">
<path d="M36.4292 7.17217C36.2785 6.83365 36.0355 6.52806 35.7025 6.25708C35.6351 6.18954 35.5685 6.12961 35.5019 6.07896C35.4344 6.02831 35.3678 5.96921 35.3012 5.90083C35.0332 5.73115 34.8076 5.62985 34.6245 5.59608C34.4405 5.56231 34.3148 5.54459 34.2482 5.54459C34.1483 5.54459 34.0301 5.5792 33.8969 5.64673C33.8636 5.68135 33.847 5.732 33.847 5.79953C33.847 5.86791 33.8794 5.90168 33.9469 5.90168C34.0135 5.97006 34.0892 6.06292 34.1725 6.18194C34.2557 6.30097 34.2973 6.44533 34.2973 6.61417C34.3306 8.20798 34.2132 9.8018 33.946 11.3956C33.7121 12.786 33.2942 14.2616 32.6924 15.8208C32.0897 17.3809 31.204 18.8557 30.0344 20.246C29.967 18.7544 30.0003 17.2956 30.1343 15.8715C30.2675 14.6508 30.4939 13.3541 30.8111 11.9806C31.1282 10.6072 31.6552 9.37887 32.391 8.29325C32.4235 8.29325 32.4568 8.27636 32.4909 8.24175C32.5575 8.17422 32.6416 8.14045 32.7415 8.14045C32.8081 8.17506 32.8747 8.17506 32.9421 8.14045C33.0428 8.07291 33.0595 7.97077 32.9929 7.83485C32.893 7.66602 32.7332 7.46257 32.5167 7.22451C32.2986 6.98814 32.0064 6.78469 31.6385 6.61417C31.338 6.44449 30.995 6.30857 30.6104 6.20727C30.2259 6.10513 29.8329 6.12285 29.4317 6.25792C29.2644 6.3263 29.0979 6.44449 28.9297 6.61417C28.8623 6.68255 28.8124 6.75008 28.7791 6.81762C28.6118 7.12321 28.3787 7.64914 28.0765 8.39455C27.776 9.14081 27.5004 10.0475 27.2499 11.1153C26.9985 12.1841 26.8228 13.4039 26.7229 14.7774C26.6963 15.1379 26.683 15.5085 26.6797 15.8867C26.6131 16.1365 26.5581 16.3923 26.4724 16.6338C26.2043 17.3454 25.8206 18.0756 25.3186 18.821C24.8167 19.5673 24.1316 20.127 23.2625 20.4993C23.1951 19.8889 23.2125 19.1435 23.3124 18.2614C23.379 17.4813 23.5131 16.524 23.7137 15.3878C23.8427 14.655 24.0342 13.8167 24.2747 12.8932C25.0764 10.4088 24.8558 10.7101 23.7977 9.40166C23.1917 8.65203 22.2036 8.04337 21.4636 7.65673C21.2147 7.50056 20.9625 7.36887 20.7044 7.27516C20.647 7.25406 20.5978 7.2414 20.5421 7.22198C20.5063 7.20763 20.4821 7.1975 20.4821 7.1975L20.4746 7.20003C20.1017 7.07425 19.7546 6.97548 19.4507 6.91892C19.0162 6.81677 18.5808 6.78385 18.1471 6.81677C17.4779 6.85138 16.8843 7.13081 16.3666 7.65589C15.8479 8.18266 15.3884 8.85125 14.9872 9.66504C14.586 10.4788 14.2422 11.3779 13.9591 12.3605C13.6744 13.3448 13.4663 14.2937 13.3323 15.2088C13.2641 15.6731 13.2224 16.1045 13.1925 16.5206C12.9261 17.2365 12.5598 17.9524 12.0787 18.6674C11.5775 19.4137 10.8916 19.9734 10.0225 20.3456V20.2941C9.9884 20.1591 9.93013 19.6509 9.84688 18.7687C9.76281 17.8874 9.78861 16.8355 9.9218 15.6148C9.9551 15.2763 9.8885 15.0045 9.72118 14.801C9.62046 14.6989 9.52057 14.6145 9.41984 14.5469C9.01861 14.3097 8.5 14.0379 7.86484 13.7332C7.22886 13.4284 6.62784 13.2241 6.05928 13.1228C6.32649 12.6475 6.59371 12.1908 6.86175 11.7493C7.12897 11.3095 7.43031 10.9018 7.76412 10.5286C7.69669 10.8005 7.6301 11.0208 7.5635 11.1896C7.49607 11.3602 7.42948 11.5796 7.36288 11.8515C7.32875 11.9528 7.31293 12.0549 7.31293 12.1562C7.31293 12.3597 7.39618 12.4956 7.5635 12.5631C7.83071 12.699 8.17285 12.8603 8.59156 13.046C9.00945 13.2334 9.58633 13.3946 10.3222 13.5297C10.3888 13.5643 10.4554 13.5643 10.5228 13.5297C10.656 13.4622 10.7401 13.344 10.7734 13.1735C10.9407 12.4956 11.1247 11.8084 11.3253 11.1137C11.5259 10.4189 11.7931 9.63127 12.1278 8.74826V8.64696C12.1944 8.40974 12.1944 8.24006 12.1278 8.13792C12.0603 8.03577 12.0104 7.96823 11.9771 7.93447H11.9263C11.5917 7.62972 11.2154 7.37477 10.7984 7.17133C10.3796 6.96788 10.0034 6.79904 9.66957 6.66229C9.63628 6.66229 9.6113 6.65469 9.59466 6.63696C9.57717 6.62008 9.5522 6.61164 9.51974 6.61164H9.41901C9.21839 6.61164 9.05107 6.68001 8.91705 6.81508C8.84962 6.88346 8.79218 6.94255 8.74224 6.99321C8.69146 7.0447 8.64983 7.08691 8.61654 7.12068C8.61654 7.15529 8.59906 7.17133 8.56659 7.17133C8.09793 7.71414 7.45445 8.54481 6.63533 9.6642C5.81538 10.7827 5.02206 12.1562 4.25288 13.7838C4.48597 12.7328 4.76234 11.5965 5.08033 10.3758C5.39749 9.15516 5.69883 8.00285 5.9827 6.91723C6.26656 5.83246 6.52545 4.86587 6.76019 4.01746C6.99411 3.17075 7.16143 2.57644 7.26216 2.23793C7.29545 2.03448 7.2788 1.84876 7.21221 1.67823C7.17808 1.6107 7.12813 1.56005 7.06154 1.52544C6.627 1.15315 6.14169 0.847559 5.60643 0.610343C5.07117 0.373128 4.65329 0.203447 4.35278 0.101301C4.31865 0.0675337 4.28535 0.0506505 4.25288 0.0506505C4.18546 0.0506505 4.14384 0.0422081 4.12719 0.0253244C4.1097 0.00844079 4.06808 0 4.00232 0C3.8017 0 3.68433 0.0683781 3.65103 0.203447C3.5836 0.373128 3.5836 0.500599 3.65103 0.585017C3.71763 0.67028 3.71763 0.88217 3.65103 1.22069C3.48288 1.83103 3.26644 2.62794 2.99923 3.61141C2.73118 4.59573 2.45565 5.68894 2.17178 6.8919C1.88709 8.09571 1.60239 9.36789 1.31936 10.7068C1.03467 12.0465 0.784106 13.344 0.566839 14.5976C0.349572 15.8521 0.190576 17.0229 0.0906828 18.1069C-0.0100425 19.1925 -0.0266912 20.1084 0.0399041 20.8538V20.956C0.0399041 21.0573 0.0906827 21.1257 0.190576 21.1594C0.725002 21.4313 1.21864 21.6094 1.67065 21.6938C2.12184 21.7782 2.4648 21.8542 2.69872 21.9226C2.86604 21.9226 2.94928 21.8373 2.94928 21.6685C2.94928 21.6009 3.00755 21.3376 3.12493 20.88C3.24147 20.4225 3.40879 19.8459 3.62689 19.1503C3.84416 18.4555 4.10305 17.6839 4.40439 16.8355C4.7049 15.9888 5.05619 15.1235 5.45743 14.2414C5.59062 14.276 5.79123 14.3435 6.05928 14.4448C6.32649 14.5469 6.61119 14.7335 6.9117 15.0045L6.66114 16.0217C6.56041 16.3949 6.46801 16.8355 6.38476 17.3437C6.30069 17.8528 6.25074 18.3703 6.23409 18.8953C6.21661 19.4213 6.23409 19.9126 6.28404 20.371C6.33482 20.8285 6.45968 21.2101 6.6603 21.5148C6.99411 21.6507 7.36205 21.7689 7.76329 21.8711C8.09709 21.9386 8.49084 21.9808 8.94202 21.9977C9.3932 22.0146 9.88684 21.9386 10.4213 21.7689C10.4879 21.7689 10.6552 21.7014 10.9232 21.5655C11.1238 21.4979 11.3245 21.3798 11.5251 21.2101C11.759 21.0404 12.052 20.7947 12.4033 20.4723C12.6772 20.2215 12.9386 19.9092 13.1925 19.5639C13.2049 19.672 13.2141 19.7834 13.2308 19.8872C13.4988 20.566 13.8992 21.0235 14.4345 21.2607C14.9689 21.4988 15.5041 21.6507 16.0394 21.7183C16.6413 21.7858 17.3097 21.7529 18.0456 21.6161C18.1122 21.5486 18.2121 21.3705 18.3461 21.0818C18.4793 20.7939 18.63 20.4377 18.7973 20.0139C18.9638 19.5901 19.1394 19.1072 19.3234 18.5644C19.5074 18.0224 19.6996 17.4796 19.9003 16.9368C19.8661 17.31 19.8503 17.6831 19.8503 18.0562C19.8503 18.4293 19.8836 18.7687 19.951 19.0735C20.0518 19.7184 20.4771 20.2688 21.2297 20.7264C21.9822 21.1839 22.927 21.5494 24.0633 21.8196C24.6652 21.5148 25.2495 21.0742 25.8189 20.4976C26.1827 20.1287 26.5423 19.6483 26.8961 19.0625C26.9061 19.1351 26.9111 19.2035 26.9219 19.2769C27.1225 19.6838 27.3731 20.0569 27.6744 20.3954C27.9416 20.701 28.2763 20.9897 28.6775 21.2599C29.0779 21.5317 29.5965 21.752 30.2317 21.9209C30.265 21.8863 30.3158 21.8525 30.3832 21.8187C30.5155 21.7512 30.667 21.633 30.8344 21.4633C31.1349 21.2261 31.5528 20.8192 32.088 20.2426C32.6233 19.6661 33.1827 18.8692 33.7687 17.8519C34.3531 16.8347 34.9142 15.5718 35.4494 14.0624C35.9847 12.5538 36.4192 10.7312 36.753 8.59462C36.7863 8.45955 36.7946 8.34052 36.778 8.23837C36.7605 8.13707 36.753 8.05265 36.753 7.98428C36.6873 7.78252 36.579 7.51153 36.4292 7.17217ZM19.6522 14.8019C19.1502 15.955 18.6991 16.9216 18.2986 17.7008C17.83 18.583 17.3622 19.3461 16.8943 19.9894C16.7603 19.1427 16.7262 18.209 16.7936 17.1918C16.8602 16.1745 17.0192 15.1666 17.2698 14.1654C17.5203 13.1659 17.8466 12.2246 18.2479 11.3424C18.6491 10.4611 19.1003 9.7655 19.6022 9.25646C19.7954 9.06061 19.9952 8.90781 20.2024 8.79131C21.3812 8.58449 21.2022 10.2779 21.2022 10.2779C21.1706 10.4029 21.1389 10.5362 21.1073 10.6806C20.6378 12.2761 20.1533 13.6496 19.6522 14.8019Z" fill="#162B40"/>
<path d="M51.8011 14.9031C51.7345 14.7343 51.6337 14.5722 51.5005 14.4203C51.3665 14.2675 51.1667 14.1071 50.8987 13.9374C50.8313 14.8871 50.6473 15.7862 50.3468 16.6329C50.0787 17.3445 49.695 18.0747 49.193 18.8202C48.6911 19.5664 48.006 20.1261 47.1369 20.4984C47.0695 19.888 47.0861 19.1426 47.1868 18.2605C47.2534 17.4804 47.3874 16.5231 47.5881 15.3869C47.693 14.7934 47.8361 14.1349 48.0134 13.4165C48.0834 13.2924 48.1525 13.1456 48.2166 12.9472C49.0398 10.3994 48.8234 10.7194 47.7571 9.40076C46.6907 8.08215 44.4406 7.1966 44.4406 7.1966L44.394 7.21434C44.0027 7.08095 43.6415 6.97712 43.3243 6.91803C42.8898 6.81588 42.4544 6.78296 42.0207 6.81588C41.3514 6.85049 40.7579 7.12992 40.2401 7.655C39.7215 8.18177 39.262 8.85036 38.8608 9.66415C38.4604 10.4779 38.1157 11.377 37.8327 12.3596C37.548 13.3439 37.3399 14.2928 37.2059 15.2079C37.106 15.8866 37.0477 16.5138 37.0302 17.0896C37.0136 17.667 37.0053 18.1583 37.0053 18.5652C37.0053 19.0405 37.0394 19.4803 37.106 19.8872C37.374 20.5659 37.7744 21.0235 38.3097 21.2607C38.8441 21.4987 39.3785 21.6507 39.9146 21.7182C40.5165 21.7858 41.1849 21.7528 41.9208 21.6161C41.9874 21.5485 42.0873 21.3704 42.2213 21.0817C42.3545 20.7939 42.5052 20.4376 42.6725 20.0138C42.8398 19.59 43.0155 19.1072 43.1994 18.5644C43.3834 18.0224 43.5757 17.4796 43.7763 16.9368C43.7422 17.3099 43.7255 17.683 43.7255 18.0562C43.7255 18.4293 43.758 18.7687 43.8254 19.0734C43.9262 19.7184 44.3524 20.2688 45.1049 20.7263C45.8566 21.1839 46.8014 21.5494 47.9385 21.8195C48.5404 21.5148 49.1247 21.0741 49.6933 20.4975C50.162 20.0231 50.6215 19.3706 51.0727 18.539C51.5238 17.7084 51.8327 16.6658 52 15.4105C51.9692 15.2434 51.9026 15.0737 51.8011 14.9031ZM44.98 10.6814C44.5114 12.2761 44.0269 13.6495 43.5258 14.8018C43.0238 15.955 42.5726 16.9216 42.1714 17.7008C41.7027 18.5829 41.2349 19.3461 40.7671 19.9893C40.633 19.1426 40.5989 18.209 40.6663 17.1917C40.7329 16.1745 40.8919 15.1665 41.1433 14.1653C41.3939 13.1658 41.7194 12.2246 42.1214 11.3424C42.5218 10.4611 42.9739 9.76545 43.4758 9.25641C43.6498 9.07998 43.8304 8.93815 44.0161 8.82588C44.0644 8.8149 44.1043 8.80055 44.1559 8.79126C45.0058 8.63847 45.1507 9.46492 45.1657 9.94695C45.1032 10.158 45.0416 10.3994 44.98 10.6814Z" fill="#162B40"/>
</svg>
