<svg width="64" height="64" viewBox="0 0 64 64" fill="none" xmlns="http://www.w3.org/2000/svg">
<g clip-path="url(#clip0)">
<path d="M60.3595 0H34.6405C32.6382 0 31 1.61101 31 3.58002V24.3716C31 26.3407 32.6382 27.9517 34.6405 27.9517H47.0723C47.2639 27.9517 47.4478 28.0267 47.5838 28.1605L54.3251 34.7898C54.7831 35.2402 55.5626 34.919 55.5626 34.2798V28.6704C55.5626 28.2735 55.8876 27.9517 56.2886 27.9517H60.3595C62.3618 27.9517 64 26.3407 64 24.3716V3.58002C64 1.61101 62.3618 0 60.3595 0Z" fill="#E5E8EA"/>
<path d="M5.07463 16H40.9254C43.1759 16 45 17.8194 45 20.012V49.1203C45 51.313 43.1759 53.1323 40.9254 53.1323H35.2507C34.1449 53.1323 33.2388 54.0252 33.2388 55.1385V62.9918C33.2388 62.9926 33.2388 62.9934 33.2388 62.9941C33.2372 62.9949 33.2354 62.9959 33.2333 62.9967C33.2292 62.9984 33.2255 62.9994 33.2226 62.9998C33.2212 62.9986 33.2191 62.9968 33.2165 62.9942L23.8196 53.7132C23.4422 53.3405 22.9332 53.1323 22.4038 53.1323H5.07463C2.82413 53.1323 1 51.313 1 49.1203V20.012C1 17.8194 2.82413 16 5.07463 16Z" fill="white" stroke="#162B40" stroke-width="2"/>
<path d="M29 31.2995C29 33.4685 27.3634 34.7876 26.1683 35.7556C25.7157 36.1223 24.8732 36.7913 24.8755 37.0412C24.8837 38.0214 24.0668 38.8043 23.0506 38.8043C23.0455 38.8043 23.0403 38.8043 23.0352 38.8043C22.0262 38.8043 21.204 38.0455 21.1958 37.0702C21.1797 35.1477 22.6337 33.9965 23.8022 33.0499C24.7191 32.3072 25.3203 31.7845 25.3203 31.3062C25.3203 30.338 24.5038 29.5502 23.5003 29.5502C22.4964 29.5502 21.6797 30.338 21.6797 31.3062C21.6797 32.2866 20.856 33.0813 19.8398 33.0813C18.8236 33.0813 18 32.2866 18 31.3062C18 28.3804 20.4672 26 23.4999 26C26.5328 25.9998 29 28.3735 29 31.2995ZM23.0861 40.4429C22.0699 40.4429 21.287 41.2375 21.287 42.218V42.2316C21.287 43.212 22.0701 44 23.0861 44C24.1021 44 24.926 43.1984 24.926 42.218C24.926 41.2375 24.1023 40.4429 23.0861 40.4429Z" fill="#71E3BD"/>
<path d="M26.1791 35.7468C27.3732 34.7796 29 33.4619 29 31.2995C29 28.3735 26.5328 25.9998 23.4999 26C20.4672 26 18 28.3804 18 31.3062C18 32.2866 18.8236 33.0813 19.8398 33.0813C20.856 33.0813 21.6797 32.2866 21.6797 31.3062C21.6797 30.338 22.4964 29.5502 23.5003 29.5502C24.5038 29.5502 25.3203 30.338 25.3203 31.3062C25.3203 31.7845 24.7191 32.3072 23.8022 33.0499C22.6337 33.9965 21.1797 35.1477 21.1958 37.0702C21.204 38.0455 22.0262 38.8043 23.0352 38.8043H23.0506C24.0668 38.8043 24.8837 38.0214 24.8755 37.0412C24.8732 36.7913 25.7157 36.1223 26.1683 35.7556L26.1791 35.7468Z" fill="#71E3BD"/>
<path d="M21.287 42.218C21.287 41.2375 22.0699 40.4429 23.0861 40.4429C24.1023 40.4429 24.926 41.2375 24.926 42.218C24.926 43.1984 24.1021 44 23.0861 44C22.0701 44 21.287 43.212 21.287 42.2316V42.218Z" fill="#71E3BD"/>
<path d="M26.1791 35.7468C27.3732 34.7796 29 33.4619 29 31.2995C29 28.3735 26.5328 25.9998 23.4999 26C20.4672 26 18 28.3804 18 31.3062C18 32.2866 18.8236 33.0813 19.8398 33.0813C20.856 33.0813 21.6797 32.2866 21.6797 31.3062C21.6797 30.338 22.4964 29.5502 23.5003 29.5502C24.5038 29.5502 25.3203 30.338 25.3203 31.3062C25.3203 31.7845 24.7191 32.3072 23.8022 33.0499C22.6337 33.9965 21.1797 35.1477 21.1958 37.0702C21.204 38.0455 22.0262 38.8043 23.0352 38.8043H23.0506C24.0668 38.8043 24.8837 38.0214 24.8755 37.0412C24.8732 36.7913 25.7157 36.1223 26.1683 35.7556L26.1791 35.7468Z" fill="#71E3BD"/>
<path d="M21.287 42.218C21.287 41.2375 22.0699 40.4429 23.0861 40.4429C24.1023 40.4429 24.926 41.2375 24.926 42.218C24.926 43.1984 24.1021 44 23.0861 44C22.0701 44 21.287 43.212 21.287 42.2316V42.218Z" fill="#71E3BD"/>
<path d="M26.1791 35.7468C27.3732 34.7796 29 33.4619 29 31.2995C29 28.3735 26.5328 25.9998 23.4999 26C20.4672 26 18 28.3804 18 31.3062C18 32.2866 18.8236 33.0813 19.8398 33.0813C20.856 33.0813 21.6797 32.2866 21.6797 31.3062C21.6797 30.338 22.4964 29.5502 23.5003 29.5502C24.5038 29.5502 25.3203 30.338 25.3203 31.3062C25.3203 31.7845 24.7191 32.3072 23.8022 33.0499C22.6337 33.9965 21.1797 35.1477 21.1958 37.0702C21.204 38.0455 22.0262 38.8043 23.0352 38.8043H23.0506C24.0668 38.8043 24.8837 38.0214 24.8755 37.0412C24.8732 36.7913 25.7157 36.1223 26.1683 35.7556L26.1791 35.7468Z" fill="#71E3BD"/>
<path d="M21.287 42.218C21.287 41.2375 22.0699 40.4429 23.0861 40.4429C24.1023 40.4429 24.926 41.2375 24.926 42.218C24.926 43.1984 24.1021 44 23.0861 44C22.0701 44 21.287 43.212 21.287 42.2316V42.218Z" fill="#71E3BD"/>
<path d="M26.1791 35.7468C27.3732 34.7796 29 33.4619 29 31.2995C29 28.3735 26.5328 25.9998 23.4999 26C20.4672 26 18 28.3804 18 31.3062C18 32.2866 18.8236 33.0813 19.8398 33.0813C20.856 33.0813 21.6797 32.2866 21.6797 31.3062C21.6797 30.338 22.4964 29.5502 23.5003 29.5502C24.5038 29.5502 25.3203 30.338 25.3203 31.3062C25.3203 31.7845 24.7191 32.3072 23.8022 33.0499C22.6337 33.9965 21.1797 35.1477 21.1958 37.0702C21.204 38.0455 22.0262 38.8043 23.0352 38.8043H23.0506C24.0668 38.8043 24.8837 38.0214 24.8755 37.0412C24.8732 36.7913 25.7157 36.1223 26.1683 35.7556L26.1791 35.7468Z" fill="#71E3BD"/>
<path d="M21.287 42.218C21.287 41.2375 22.0699 40.4429 23.0861 40.4429C24.1023 40.4429 24.926 41.2375 24.926 42.218C24.926 43.1984 24.1021 44 23.0861 44C22.0701 44 21.287 43.212 21.287 42.2316V42.218Z" fill="#71E3BD"/>
<path d="M26.1791 35.7468C27.3732 34.7796 29 33.4619 29 31.2995C29 28.3735 26.5328 25.9998 23.4999 26C20.4672 26 18 28.3804 18 31.3062C18 32.2866 18.8236 33.0813 19.8398 33.0813C20.856 33.0813 21.6797 32.2866 21.6797 31.3062C21.6797 30.338 22.4964 29.5502 23.5003 29.5502C24.5038 29.5502 25.3203 30.338 25.3203 31.3062C25.3203 31.7845 24.7191 32.3072 23.8022 33.0499C22.6337 33.9965 21.1797 35.1477 21.1958 37.0702C21.204 38.0455 22.0262 38.8043 23.0352 38.8043H23.0506C24.0668 38.8043 24.8837 38.0214 24.8755 37.0412C24.8732 36.7913 25.7157 36.1223 26.1683 35.7556L26.1791 35.7468Z" fill="#71E3BD"/>
<path d="M21.287 42.218C21.287 41.2375 22.0699 40.4429 23.0861 40.4429C24.1023 40.4429 24.926 41.2375 24.926 42.218C24.926 43.1984 24.1021 44 23.0861 44C22.0701 44 21.287 43.212 21.287 42.2316V42.218Z" fill="#71E3BD"/>
<path d="M26.1791 35.7468C27.3732 34.7796 29 33.4619 29 31.2995C29 28.3735 26.5328 25.9998 23.4999 26C20.4672 26 18 28.3804 18 31.3062C18 32.2866 18.8236 33.0813 19.8398 33.0813C20.856 33.0813 21.6797 32.2866 21.6797 31.3062C21.6797 30.338 22.4964 29.5502 23.5003 29.5502C24.5038 29.5502 25.3203 30.338 25.3203 31.3062C25.3203 31.7845 24.7191 32.3072 23.8022 33.0499C22.6337 33.9965 21.1797 35.1477 21.1958 37.0702C21.204 38.0455 22.0262 38.8043 23.0352 38.8043H23.0506C24.0668 38.8043 24.8837 38.0214 24.8755 37.0412C24.8732 36.7913 25.7157 36.1223 26.1683 35.7556L26.1791 35.7468Z" fill="#71E3BD"/>
<path d="M21.287 42.218C21.287 41.2375 22.0699 40.4429 23.0861 40.4429C24.1023 40.4429 24.926 41.2375 24.926 42.218C24.926 43.1984 24.1021 44 23.0861 44C22.0701 44 21.287 43.212 21.287 42.2316V42.218Z" fill="#71E3BD"/>
</g>
<defs>
<clipPath id="clip0">
<rect width="64" height="64" fill="white"/>
</clipPath>
</defs>
</svg>
